<svg width="800" height="800" viewBox="0 0 28 28" fill="none" xmlns="http://www.w3.org/2000/svg"><path clip-rule="evenodd" d="M14 20a6 6 0 1 0 0-12 6 6 0 0 0 0 12m4-6a4 4 0 1 1-8 0 4 4 0 0 1 8 0" fill="#000" fill-rule="evenodd"/><path clip-rule="evenodd" d="M0 13v2a3 3 0 0 0 2.678 2.983q.192.545.433 1.064a3 3 0 0 0 .182 4.045l1.414 1.414a3 3 0 0 0 3.963.247q.652.324 1.346.569A3 3 0 0 0 13 28h2a3 3 0 0 0 2.983-2.677q.63-.222 1.227-.51a3 3 0 0 0 3.884-.307l1.414-1.414a3 3 0 0 0 .307-3.884q.287-.596.51-1.226A3 3 0 0 0 28 15v-2a3 3 0 0 0-2.677-2.983 12 12 0 0 0-.569-1.348 3 3 0 0 0-.248-3.962l-1.414-1.414a3 3 0 0 0-4.043-.183 12 12 0 0 0-1.067-.434A3 3 0 0 0 14.999 0h-2a3 3 0 0 0-2.983 2.678 12 12 0 0 0-1.193.494 3 3 0 0 0-4.115.12L3.294 4.708a3 3 0 0 0-.121 4.115q-.279.581-.495 1.195A3 3 0 0 0 0 13M16 3a1 1 0 0 0-1-1h-2a1 1 0 0 0-1 1v.383c0 .475-.337.88-.794 1.012a10 10 0 0 0-2.021.838c-.417.23-.94.182-1.277-.154l-.372-.372a1 1 0 0 0-1.414 0L4.708 6.12a1 1 0 0 0 0 1.414l.372.372c.336.336.384.86.155 1.277a10 10 0 0 0-.839 2.022c-.133.457-.537.794-1.013.794H3a1 1 0 0 0-1 1v2a1 1 0 0 0 1 1h.383c.476 0 .88.336 1.013.793.194.666.454 1.304.775 1.905.221.415.17.931-.162 1.264l-.302.301a1 1 0 0 0 0 1.414l1.414 1.415a1 1 0 0 0 1.415 0l.243-.244c.34-.34.872-.385 1.29-.147.668.38 1.384.684 2.137.903.457.133.793.537.793 1.013V25a1 1 0 0 0 1 1h2a1 1 0 0 0 1-1v-.383c0-.475.337-.88.794-1.012a10 10 0 0 0 2.023-.84c.417-.229.941-.18 1.277.156l.171.17a1 1 0 0 0 1.414 0l1.415-1.414a1 1 0 0 0 0-1.414l-.171-.17c-.337-.337-.384-.861-.155-1.278.35-.635.632-1.312.838-2.022.133-.457.537-.793 1.013-.793H25a1 1 0 0 0 1-1v-2a1 1 0 0 0-1-1h-.382c-.476 0-.88-.337-1.013-.794a10 10 0 0 0-.903-2.138c-.238-.419-.193-.95.147-1.29l.243-.243a1 1 0 0 0 0-1.414l-1.414-1.414a1 1 0 0 0-1.415 0l-.3.3c-.333.333-.85.384-1.264.163a10 10 0 0 0-1.906-.775c-.457-.133-.794-.537-.794-1.013z" fill="#000" fill-rule="evenodd"/></svg>